<?xml version="1.0" standalone="no"?>
<!DOCTYPE svg PUBLIC "-//W3C//DTD SVG 20010904//EN"
 "http://www.w3.org/TR/2001/REC-SVG-20010904/DTD/svg10.dtd">
<svg version="1.0" xmlns="http://www.w3.org/2000/svg"
 width="512.000000pt" height="512.000000pt" viewBox="0 0 512.000000 512.000000"
 preserveAspectRatio="xMidYMid meet">

<g transform="translate(0.000000,512.000000) scale(0.100000,-0.100000)"
fill="#000000" stroke="none">
<path d="M2315 5109 c-884 -91 -1661 -631 -2049 -1423 -93 -188 -137 -308
-186 -500 -61 -240 -74 -355 -74 -626 0 -271 13 -386 74 -626 49 -192 93 -312
185 -500 248 -505 664 -921 1169 -1168 250 -123 498 -201 771 -242 149 -23
530 -26 675 -5 544 76 1026 296 1430 652 106 93 122 119 117 186 -5 66 -40
115 -101 138 -60 23 -104 14 -160 -33 -362 -301 -564 -422 -882 -526 -732
-240 -1529 -101 -2128 372 -91 71 -277 257 -349 348 -244 310 -402 675 -463
1074 -25 161 -25 501 -1 660 63 400 220 763 464 1074 71 90 256 274 349 348
594 471 1386 611 2106 372 474 -158 887 -474 1161 -889 51 -77 147 -254 147
-270 0 -3 -208 -5 -462 -5 -437 0 -465 -2 -506 -20 -108 -49 -108 -231 0 -280
41 -19 71 -20 718 -20 647 0 677 1 718 20 33 15 47 29 62 62 19 41 20 71 20
718 0 647 -1 677 -20 718 -33 74 -130 102 -217 63 -79 -36 -77 -27 -83 -525
l-5 -439 -51 84 c-392 641 -1073 1084 -1834 1194 -135 20 -466 28 -595 14z"/>
</g>
</svg>
