<?xml version="1.0" standalone="no"?>
<!DOCTYPE svg PUBLIC "-//W3C//DTD SVG 20010904//EN"
 "http://www.w3.org/TR/2001/REC-SVG-20010904/DTD/svg10.dtd">
<svg version="1.0" xmlns="http://www.w3.org/2000/svg"
 width="512.000000pt" height="512.000000pt" viewBox="0 0 512.000000 512.000000"
 preserveAspectRatio="xMidYMid meet">

<g transform="translate(0.000000,512.000000) scale(0.100000,-0.100000)"
fill="#000000" stroke="none">
<path d="M2215 5106 c-239 -46 -899 -291 -1098 -409 -39 -23 -111 -81 -161
-129 -160 -152 -252 -334 -284 -556 -30 -214 -14 -284 210 -920 55 -156 98
-285 96 -287 -2 -1 -37 -19 -78 -38 -161 -76 -290 -231 -335 -402 -27 -105
-39 -390 -39 -940 0 -548 12 -820 40 -929 53 -204 233 -387 434 -441 157 -43
1233 -68 1890 -45 l265 9 23 26 c27 32 28 65 3 96 l-19 24 -219 -5 c-681 -16
-1722 4 -1874 35 -163 33 -294 150 -349 310 -26 76 -38 260 -46 725 -8 410 9
953 33 1069 20 101 54 164 127 237 70 70 138 108 228 128 243 55 2194 54 2437
0 92 -21 173 -68 238 -138 68 -73 109 -157 123 -251 38 -265 38 -1416 -1
-1690 -28 -201 -187 -361 -391 -395 -82 -14 -118 -38 -118 -81 0 -15 9 -37 19
-50 16 -20 28 -24 70 -22 250 7 489 204 556 458 28 107 39 380 39 950 0 566
-10 810 -39 920 -56 211 -225 382 -435 441 -99 27 -537 45 -1200 49 l-625 4
-72 198 c-40 109 -118 330 -173 491 -115 338 -118 358 -69 458 27 57 29 66 17
91 -16 34 -58 50 -95 37 -20 -7 -37 -28 -62 -77 -29 -57 -35 -80 -39 -151 -4
-83 -4 -84 82 -337 47 -140 124 -357 169 -484 l83 -230 -40 -6 c-23 -3 -122
-9 -222 -13 l-181 -7 -78 218 c-149 421 -225 657 -236 738 -21 150 5 301 76
450 82 171 207 292 390 380 214 103 565 234 829 311 251 73 463 51 671 -69 95
-54 227 -189 282 -287 23 -41 98 -217 166 -390 162 -410 162 -410 151 -419
-13 -11 -384 -145 -388 -140 -2 2 -29 72 -61 154 -111 290 -217 550 -240 591
-31 53 -91 106 -157 140 -42 22 -71 28 -139 32 -80 4 -96 1 -238 -42 -150 -46
-363 -123 -512 -185 -82 -34 -106 -61 -95 -105 9 -35 33 -56 67 -56 16 0 86
23 156 51 134 54 321 119 469 164 149 46 259 22 314 -68 17 -27 153 -363 296
-730 42 -108 64 -130 119 -117 17 4 147 51 290 104 257 95 305 120 305 160 0
31 -295 777 -352 891 -63 126 -193 274 -311 354 -73 49 -202 106 -297 131
-107 28 -295 35 -395 16z"/>
<path d="M3995 3941 c-11 -5 -84 -74 -162 -153 -154 -156 -162 -171 -122 -222
14 -18 30 -26 52 -26 28 0 52 20 185 153 119 119 152 158 152 179 0 51 -58 89
-105 69z"/>
<path d="M3815 3345 c-14 -13 -25 -36 -25 -50 0 -14 11 -37 25 -50 l24 -25
356 0 356 0 24 25 c14 13 25 36 25 50 0 14 -11 37 -25 50 l-24 25 -356 0 -356
0 -24 -25z"/>
<path d="M3715 3025 c-49 -48 -39 -65 128 -232 167 -167 184 -177 232 -128 49
48 39 65 -128 232 -167 167 -184 177 -232 128z"/>
<path d="M2140 2286 c-243 -68 -410 -286 -410 -536 0 -141 51 -267 150 -373
l60 -65 -105 -183 c-58 -101 -110 -202 -116 -224 -34 -126 33 -264 156 -321
50 -24 53 -24 405 -23 314 0 360 2 398 18 55 22 115 78 143 133 27 53 36 151
19 204 -7 21 -60 119 -117 218 l-104 178 52 51 c56 57 106 136 133 212 26 74
32 225 12 304 -53 206 -216 367 -415 410 -67 14 -204 13 -261 -3z m303 -168
c79 -37 160 -116 200 -197 30 -61 32 -72 32 -171 0 -99 -2 -110 -33 -172 -22
-45 -52 -84 -93 -122 -33 -31 -64 -56 -69 -56 -16 0 -40 -57 -33 -77 3 -10 62
-116 131 -236 120 -211 124 -220 119 -265 -4 -37 -12 -53 -41 -79 l-36 -33
-339 0 c-328 0 -339 1 -365 21 -38 30 -59 76 -53 118 3 22 56 126 131 257 138
239 143 255 89 292 -144 98 -211 226 -200 383 6 97 38 169 103 240 91 96 174
130 309 126 72 -2 101 -8 148 -29z"/>
</g>
</svg>
