<?xml version="1.0" standalone="no"?>
<!DOCTYPE svg PUBLIC "-//W3C//DTD SVG 20010904//EN"
 "http://www.w3.org/TR/2001/REC-SVG-20010904/DTD/svg10.dtd">
<svg version="1.0" xmlns="http://www.w3.org/2000/svg"
 width="512.000000pt" height="512.000000pt" viewBox="0 0 512.000000 512.000000"
 preserveAspectRatio="xMidYMid meet">

<g transform="translate(0.000000,512.000000) scale(0.100000,-0.100000)"
fill="#000000" stroke="none">
<path d="M3625 4776 c-324 -57 -604 -106 -621 -110 -24 -5 -34 -2 -50 15 -10
11 -36 30 -56 40 -35 18 -69 19 -675 19 -594 0 -641 -2 -678 -19 -39 -17 -41
-17 -80 0 -36 17 -74 19 -391 19 l-351 0 -21 -23 c-31 -33 -29 -80 4 -106 26
-20 38 -21 363 -21 249 0 340 -3 349 -12 9 -9 12 -415 12 -1765 l0 -1754 25
-24 c31 -32 74 -33 103 -2 l22 23 0 1751 c0 1579 2 1753 16 1767 14 14 84 16
628 16 463 0 615 -3 624 -12 9 -9 12 -486 12 -2085 0 -2039 0 -2072 -19 -2083
-13 -6 -226 -10 -624 -10 -572 0 -605 1 -620 18 -14 16 -17 44 -17 185 0 154
-2 169 -20 187 -33 33 -75 30 -108 -6 -21 -24 -22 -33 -22 -194 0 -157 -1
-170 -19 -180 -13 -6 -227 -10 -625 -10 -536 0 -606 2 -620 16 -14 14 -16 216
-16 2075 0 1401 3 2067 10 2080 10 17 22 19 141 19 125 0 131 1 154 25 14 13
25 36 25 50 0 14 -11 37 -25 50 -23 24 -29 25 -162 25 -150 0 -195 -12 -240
-61 -57 -62 -53 85 -53 -2187 l0 -2089 23 -44 c13 -24 43 -57 66 -74 l43 -30
657 0 c619 0 658 1 685 18 27 18 29 18 64 0 34 -17 81 -18 667 -21 429 -2 642
0 667 8 48 14 94 53 118 101 20 37 20 70 20 1615 0 868 2 1575 5 1572 3 -2
124 -702 270 -1554 146 -852 270 -1571 277 -1598 8 -36 22 -61 53 -92 69 -69
91 -70 393 -19 652 110 969 166 993 176 56 22 119 113 119 172 0 52 -701 4109
-714 4135 -16 30 -61 74 -91 90 -52 26 -107 19 -690 -82z m645 -78 c5 -13 165
-934 356 -2047 306 -1786 344 -2025 331 -2038 -15 -15 -1133 -213 -1203 -213
-18 0 -36 5 -39 11 -4 5 -162 913 -351 2017 -189 1104 -346 2018 -349 2032
-12 56 -19 54 590 159 314 55 589 100 613 100 35 1 44 -3 52 -21z"/>
<path d="M3710 4235 c-434 -76 -401 -69 -439 -101 -63 -53 -69 -1 124 -1124
96 -562 179 -1029 184 -1038 34 -63 98 -87 190 -71 82 15 116 44 107 92 -10
52 -40 70 -107 62 l-57 -7 -10 64 c-6 34 -81 471 -167 970 -85 499 -155 915
-155 925 0 16 42 25 350 77 193 33 352 57 354 55 8 -8 337 -1952 333 -1963 -3
-6 -67 -22 -143 -35 -163 -28 -179 -34 -195 -74 -16 -37 3 -77 43 -91 35 -12
347 41 389 66 17 11 39 38 50 63 l20 44 -176 1028 c-129 755 -181 1034 -194
1052 -26 37 -62 59 -101 65 -20 3 -190 -22 -400 -59z"/>
<path d="M3905 3640 c-11 -12 -19 -35 -18 -53 0 -18 35 -234 77 -482 55 -317
83 -457 95 -475 38 -53 131 -28 131 34 0 59 -160 950 -175 972 -21 32 -83 34
-110 4z"/>
<path d="M3628 3590 c-21 -22 -29 -37 -25 -53 3 -12 40 -229 83 -482 86 -502
87 -505 152 -505 34 0 72 36 72 69 0 12 -36 232 -80 489 -75 440 -81 468 -106
490 -34 30 -60 28 -96 -8z"/>
<path d="M4167 1505 c-211 -38 -273 -61 -331 -125 -57 -63 -79 -116 -84 -200
-3 -60 0 -87 17 -131 45 -120 151 -199 275 -207 84 -5 405 48 473 78 65 28
127 92 158 162 91 202 -43 431 -265 452 -38 3 -112 -5 -243 -29z m312 -153
c14 -10 37 -34 49 -53 20 -29 23 -44 20 -95 -5 -77 -37 -125 -100 -148 -66
-23 -347 -68 -399 -64 -119 12 -187 146 -126 252 35 63 71 78 277 112 195 33
231 32 279 -4z"/>
<path d="M370 4183 c-23 -9 -60 -45 -76 -75 -12 -23 -14 -194 -14 -1068 0
-1160 -4 -1087 69 -1132 36 -23 38 -23 441 -23 450 0 449 0 490 68 19 31 20
58 20 1080 0 1162 4 1094 -65 1137 -31 19 -48 20 -441 19 -225 0 -416 -3 -424
-6z m780 -1143 l0 -1000 -360 0 -360 0 0 1000 0 1000 360 0 360 0 0 -1000z"/>
<path d="M599 3571 l-24 -19 -3 -479 c-1 -263 0 -488 3 -501 14 -58 81 -81
123 -42 l22 21 0 499 c0 487 -1 501 -20 520 -25 25 -71 26 -101 1z"/>
<path d="M903 3340 c-12 -5 -26 -18 -32 -29 -7 -13 -11 -147 -11 -389 l0 -369
23 -21 c31 -29 72 -28 102 3 l25 24 0 366 0 367 -29 29 c-31 31 -42 33 -78 19z"/>
<path d="M1779 4167 c-74 -49 -69 28 -69 -1131 0 -1035 0 -1038 21 -1076 43
-76 34 -75 489 -75 450 0 449 0 490 68 19 31 20 58 20 1085 0 1163 4 1092 -63
1132 -30 19 -53 20 -443 20 -411 0 -411 0 -445 -23z m801 -1127 l0 -1000 -360
0 -360 0 0 1000 0 1000 360 0 360 0 0 -1000z"/>
<path d="M2037 3578 c-34 -27 -37 -64 -37 -529 0 -502 2 -522 54 -535 44 -11
76 4 92 41 11 28 14 117 14 493 0 473 -3 512 -40 532 -26 14 -63 12 -83 -2z"/>
<path d="M2312 3567 c-22 -23 -22 -24 -22 -519 l0 -497 26 -20 c35 -28 69 -26
99 4 l25 24 0 491 0 491 -25 24 c-31 32 -74 33 -103 2z"/>
<path d="M579 1420 c-103 -18 -198 -92 -243 -189 -16 -35 -21 -65 -21 -131 0
-73 4 -92 28 -137 34 -66 83 -116 150 -151 l52 -27 245 0 c284 0 302 4 389 94
68 70 94 141 89 241 -6 94 -37 159 -108 223 -78 71 -113 79 -340 83 -107 1
-216 -1 -241 -6z m451 -165 c16 -8 41 -31 56 -51 63 -82 34 -208 -59 -253 -39
-19 -61 -21 -235 -21 -216 0 -238 5 -289 63 -71 81 -47 208 47 258 31 17 59
19 243 19 165 0 214 -3 237 -15z"/>
<path d="M2009 1420 c-100 -18 -191 -87 -236 -178 -39 -80 -40 -192 -2 -272
32 -66 86 -123 154 -158 l50 -27 245 0 245 0 57 28 c109 54 178 166 178 290 0
93 -25 152 -95 223 -87 88 -115 96 -355 100 -107 1 -216 -1 -241 -6z m461
-172 c52 -36 73 -71 78 -132 6 -73 -28 -134 -91 -165 -39 -19 -61 -21 -235
-21 -213 0 -240 6 -284 58 -55 66 -60 142 -14 212 43 65 64 70 302 70 203 0
212 -1 244 -22z"/>
</g>
</svg>
